<?xml version="1.0" standalone="no"?>
<!DOCTYPE svg PUBLIC "-//W3C//DTD SVG 20010904//EN"
 "http://www.w3.org/TR/2001/REC-SVG-20010904/DTD/svg10.dtd">
<svg version="1.0" xmlns="http://www.w3.org/2000/svg"
 width="700.000000pt" height="700.000000pt" viewBox="0 0 700.000000 700.000000"
 preserveAspectRatio="xMidYMid meet">
<metadata>
Created by potrace 1.11, written by Peter Selinger 2001-2013
</metadata>
<g transform="translate(0.000000,700.000000) scale(0.100000,-0.100000)"
fill="#000000" stroke="none">
<path d="M1690 6986 c-96 -25 -175 -99 -207 -190 -17 -49 -18 -208 -18 -3296
0 -3102 1 -3247 18 -3297 24 -69 85 -136 155 -170 l57 -28 1805 0 1805 0 57
28 c70 34 131 101 155 170 17 50 18 195 18 3297 0 3102 -1 3247 -18 3297 -24
69 -85 136 -155 170 l-57 28 -1785 2 c-1389 1 -1795 -1 -1830 -11z m3616 -172
c67 -49 69 -58 69 -257 l0 -182 -1875 0 -1875 0 -3 135 c-4 186 2 233 40 276
16 18 44 38 62 43 18 6 748 9 1793 8 l1762 -2 27 -21z m-3316 -3174 l0 -2570
-180 0 -180 0 0 2570 0 2570 180 0 180 0 0 -2570z m3380 0 l0 -2570 -175 0
-175 0 0 2570 0 2570 175 0 175 0 0 -2570z m-1625 1245 c382 -79 695 -307 890
-650 l28 -50 -89 85 c-491 471 -1382 533 -1979 139 -44 -30 -120 -92 -169
-139 l-89 -85 28 50 c95 167 244 335 385 434 169 119 380 202 586 230 95 14
313 6 409 -14z m-88 -935 c77 -36 141 -98 179 -176 26 -53 29 -69 29 -159 0
-93 -2 -105 -32 -166 -39 -79 -102 -140 -181 -177 -49 -23 -70 -27 -152 -27
-82 0 -103 4 -152 27 -79 37 -142 98 -181 177 -30 61 -32 73 -32 166 0 90 3
106 29 159 91 186 307 263 493 176z m-673 -472 c39 -142 141 -272 262 -335
308 -162 676 -2 770 335 l17 62 379 0 378 0 0 -27 c0 -16 -7 -68 -16 -118 -85
-491 -460 -900 -944 -1029 -658 -177 -1340 195 -1559 849 -30 89 -61 241 -61
296 l0 29 378 0 379 0 17 -62z m2394 -2897 c-3 -305 -4 -321 -24 -347 -11 -15
-33 -37 -48 -48 l-27 -21 -1779 0 -1779 0 -27 21 c-15 11 -37 33 -48 48 -20
26 -21 42 -24 347 l-3 319 1881 0 1881 0 -3 -319z"/>
<path d="M4816 6750 c-106 -33 -130 -178 -40 -249 107 -84 255 25 215 160 -20
68 -105 111 -175 89z m61 -126 c8 -21 -13 -42 -28 -27 -13 13 -5 43 11 43 6 0
13 -7 17 -16z"/>
<path d="M3072 6673 c-21 -8 -44 -63 -38 -89 4 -13 16 -33 28 -44 21 -19 34
-20 438 -20 404 0 417 1 438 20 12 11 24 31 28 44 7 28 -18 81 -41 90 -20 7
-834 7 -853 -1z"/>
<path d="M3052 774 c-201 -100 -198 -381 6 -481 l57 -28 385 0 c370 0 387 1
430 21 109 50 164 134 164 249 0 108 -52 192 -146 239 l-52 26 -396 0 -396 0
-52 -26z m835 -154 c57 -34 61 -121 8 -167 -26 -23 -27 -23 -395 -23 -368 0
-369 0 -395 23 -53 46 -49 133 8 167 30 19 52 20 387 20 335 0 357 -1 387 -20z"/>
</g>
</svg>
